<svg xmlns="http://www.w3.org/2000/svg" width="30" height="30" viewBox="0 0 30 30"><path d="M141.536,124.469a7.463,7.463,0,0,0-6.324,11.429l.177.282-.754,2.753,2.824-.741.273.162a7.45,7.45,0,0,0,3.8,1.04h0a7.462,7.462,0,0,0,0-14.924Zm4.389,10.666a2.311,2.311,0,0,1-1.514,1.066,3.079,3.079,0,0,1-1.413-.089,12.955,12.955,0,0,1-1.279-.472,10,10,0,0,1-3.832-3.386,4.362,4.362,0,0,1-.916-2.32,2.514,2.514,0,0,1,.785-1.871.825.825,0,0,1,.6-.281c.149,0,.3,0,.43.008s.323-.052.5.385.636,1.553.692,1.665a.414.414,0,0,1,.019.393,8.113,8.113,0,0,1-.561.767c-.1.124-.229.233-.1.458a6.762,6.762,0,0,0,1.248,1.553,6.132,6.132,0,0,0,1.8,1.113c.224.112.355.093.486-.056s.561-.655.71-.879.3-.187.5-.112,1.309.617,1.533.729.374.168.43.262A1.871,1.871,0,0,1,145.925,135.135Zm0,0" transform="translate(-126.215 -117.176)" fill="#f9f9f9"/><path d="M27.837,0H2.164A2.164,2.164,0,0,0,0,2.164V27.836A2.164,2.164,0,0,0,2.164,30H27.837A2.164,2.164,0,0,0,30,27.836V2.164A2.164,2.164,0,0,0,27.837,0ZM15.318,23.733h0a8.974,8.974,0,0,1-4.29-1.092L6.265,23.889l1.274-4.651a8.978,8.978,0,1,1,7.779,4.5Zm0,0" fill="#f9f9f9"/></svg>